<?xml version="1.0" encoding="UTF-8" standalone="no"?>
<!DOCTYPE svg PUBLIC "-//W3C//DTD SVG 1.1//EN"
 "http://www.w3.org/Graphics/SVG/1.1/DTD/svg11.dtd">
<!-- Generated by graphviz version 2.43.0 (0)
 -->
<!-- Title: %3 Pages: 1 -->
<svg width="2110pt" height="656pt"
 viewBox="0.00 0.00 2110.00 656.00" xmlns="http://www.w3.org/2000/svg" xmlns:xlink="http://www.w3.org/1999/xlink">
<g id="graph0" class="graph" transform="scale(1 1) rotate(0) translate(4 652)">
<title>%3</title>
<polygon fill="white" stroke="transparent" points="-4,4 -4,-652 2106,-652 2106,4 -4,4"/>
<!-- 1 -->
<g id="node1" class="node">
<title>1</title>
<polygon fill="#000000" stroke="#000000" points="1605,-648 1379,-648 1379,-562 1605,-562 1605,-648"/>
<text text-anchor="middle" x="1492" y="-624.88" font-family="Arial" font-size="23.90" fill="#ffffff">readMatrixFromFile</text>
<text text-anchor="middle" x="1492" y="-598.88" font-family="Arial" font-size="23.90" fill="#ffffff">99.79%</text>
<text text-anchor="middle" x="1492" y="-572.88" font-family="Arial" font-size="23.90" fill="#ffffff">(0.48%)</text>
</g>
<!-- 2 -->
<g id="node2" class="node">
<title>2</title>
<polygon fill="#000000" stroke="#000000" points="1495,-446 1113,-446 1113,-338 1495,-338 1495,-446"/>
<text text-anchor="middle" x="1304" y="-424.04" font-family="Arial" font-size="22.45" fill="#ffffff">bm::iterator_deserializer::deserialize</text>
<text text-anchor="middle" x="1304" y="-399.04" font-family="Arial" font-size="22.45" fill="#ffffff">96.72%</text>
<text text-anchor="middle" x="1304" y="-374.04" font-family="Arial" font-size="22.45" fill="#ffffff">(10.90%)</text>
<text text-anchor="middle" x="1304" y="-349.04" font-family="Arial" font-size="22.45" fill="#ffffff">368434421×</text>
</g>
<!-- 1&#45;&gt;2 -->
<g id="edge1" class="edge">
<title>1&#45;&gt;2</title>
<path fill="none" stroke="#000000" stroke-width="5.16" d="M1383.16,-561.96C1367.35,-552.09 1352.54,-540.19 1341,-526 1325.28,-506.66 1316.22,-481.09 1311.01,-457.54"/>
<polygon fill="#000000" stroke="#000000" stroke-width="5.16" points="1316.03,-456.35 1308.75,-446.18 1305.93,-458.36 1316.03,-456.35"/>
<text text-anchor="middle" x="1368" y="-507.02" font-family="Arial" font-size="9.98" fill="#000000">64.48%</text>
<text text-anchor="middle" x="1368" y="-496.02" font-family="Arial" font-size="9.98" fill="#000000">245618680×</text>
</g>
<!-- 3 -->
<g id="node3" class="node">
<title>3</title>
<polygon fill="#000000" stroke="#000000" points="1464,-526 1400,-526 1400,-482 1464,-482 1464,-526"/>
<text text-anchor="middle" x="1432" y="-515.6" font-family="Arial" font-size="8.00" fill="#ffffff">bvenumerate</text>
<text text-anchor="middle" x="1432" y="-506.6" font-family="Arial" font-size="8.00" fill="#ffffff">32.85%</text>
<text text-anchor="middle" x="1432" y="-497.6" font-family="Arial" font-size="8.00" fill="#ffffff">(0.23%)</text>
<text text-anchor="middle" x="1432" y="-488.6" font-family="Arial" font-size="8.00" fill="#ffffff">122815740×</text>
</g>
<!-- 1&#45;&gt;3 -->
<g id="edge2" class="edge">
<title>1&#45;&gt;3</title>
<path fill="none" stroke="#000000" stroke-width="2.63" d="M1464.43,-561.83C1462.57,-558.85 1460.74,-555.89 1459,-553 1455.23,-546.76 1451.32,-539.99 1447.68,-533.55"/>
<polygon fill="#000000" stroke="#000000" stroke-width="2.63" points="1449.98,-531.87 1443.55,-526.19 1445.04,-534.64 1449.98,-531.87"/>
<text text-anchor="middle" x="1482" y="-546.6" font-family="Arial" font-size="8.00" fill="#000000">32.85%</text>
<text text-anchor="middle" x="1482" y="-537.6" font-family="Arial" font-size="8.00" fill="#000000">122815740×</text>
</g>
<!-- 22 -->
<g id="node4" class="node">
<title>22</title>
<polygon fill="#000000" stroke="#000000" points="1570.5,-526 1473.5,-526 1473.5,-482 1570.5,-482 1570.5,-526"/>
<text text-anchor="middle" x="1522" y="-515.6" font-family="Arial" font-size="8.00" fill="#ffffff">bm::serializer::serialize</text>
<text text-anchor="middle" x="1522" y="-506.6" font-family="Arial" font-size="8.00" fill="#ffffff">1.19%</text>
<text text-anchor="middle" x="1522" y="-497.6" font-family="Arial" font-size="8.00" fill="#ffffff">(1.19%)</text>
<text text-anchor="middle" x="1522" y="-488.6" font-family="Arial" font-size="8.00" fill="#ffffff">20000×</text>
</g>
<!-- 1&#45;&gt;22 -->
<g id="edge3" class="edge">
<title>1&#45;&gt;22</title>
<path fill="none" stroke="#000000" stroke-width="0.1" d="M1504.81,-561.73C1508.3,-550.2 1511.96,-538.14 1515,-528.11"/>
<polygon fill="#000000" stroke="#000000" stroke-width="0.1" points="1515.67,-527.83 1515.6,-526.13 1514.6,-527.5 1515.67,-527.83"/>
<text text-anchor="middle" x="1526" y="-546.6" font-family="Arial" font-size="8.00" fill="#000000">1.19%</text>
<text text-anchor="middle" x="1526" y="-537.6" font-family="Arial" font-size="8.00" fill="#000000">20000×</text>
</g>
<!-- 23 -->
<g id="node5" class="node">
<title>23</title>
<polygon fill="#000000" stroke="#000000" points="1697.5,-414 1504.5,-414 1504.5,-370 1697.5,-370 1697.5,-414"/>
<text text-anchor="middle" x="1601" y="-403.6" font-family="Arial" font-size="8.00" fill="#ffffff">bm::serial_stream_iterator::serial_stream_iterator</text>
<text text-anchor="middle" x="1601" y="-394.6" font-family="Arial" font-size="8.00" fill="#ffffff">1.15%</text>
<text text-anchor="middle" x="1601" y="-385.6" font-family="Arial" font-size="8.00" fill="#ffffff">(1.15%)</text>
<text text-anchor="middle" x="1601" y="-376.6" font-family="Arial" font-size="8.00" fill="#ffffff">368434421×</text>
</g>
<!-- 1&#45;&gt;23 -->
<g id="edge4" class="edge">
<title>1&#45;&gt;23</title>
<path fill="none" stroke="#000000" stroke-width="0.1" d="M1547.05,-561.63C1557.73,-551.05 1567.83,-538.98 1575,-526 1594.41,-490.87 1599.5,-443.49 1600.73,-415.8"/>
<polygon fill="#000000" stroke="#000000" stroke-width="0.1" points="1601.29,-415.79 1600.8,-414.17 1600.17,-415.74 1601.29,-415.79"/>
<text text-anchor="middle" x="1614" y="-506.6" font-family="Arial" font-size="8.00" fill="#000000">0.77%</text>
<text text-anchor="middle" x="1614" y="-497.6" font-family="Arial" font-size="8.00" fill="#000000">245618680×</text>
</g>
<!-- 4 -->
<g id="node6" class="node">
<title>4</title>
<polygon fill="#000000" stroke="#000000" points="250.5,-302 67.5,-302 67.5,-258 250.5,-258 250.5,-302"/>
<text text-anchor="middle" x="159" y="-291.6" font-family="Arial" font-size="8.00" fill="#ffffff">bm::iterator_deserializer::finalize_target_vector</text>
<text text-anchor="middle" x="159" y="-282.6" font-family="Arial" font-size="8.00" fill="#ffffff">28.73%</text>
<text text-anchor="middle" x="159" y="-273.6" font-family="Arial" font-size="8.00" fill="#ffffff">(27.28%)</text>
<text text-anchor="middle" x="159" y="-264.6" font-family="Arial" font-size="8.00" fill="#ffffff">368434421×</text>
</g>
<!-- 2&#45;&gt;4 -->
<g id="edge5" class="edge">
<title>2&#45;&gt;4</title>
<path fill="none" stroke="#000000" stroke-width="2.3" d="M1112.84,-374.39C919.21,-357.29 611.13,-329.37 345,-302 316.93,-299.11 286.5,-295.77 258.54,-292.61"/>
<polygon fill="#000000" stroke="#000000" stroke-width="2.3" points="258.58,-289.94 250.73,-291.72 257.98,-295.22 258.58,-289.94"/>
<text text-anchor="middle" x="632" y="-322.6" font-family="Arial" font-size="8.00" fill="#000000">28.73%</text>
<text text-anchor="middle" x="632" y="-313.6" font-family="Arial" font-size="8.00" fill="#000000">368434421×</text>
</g>
<!-- 5 -->
<g id="node7" class="node">
<title>5</title>
<polygon fill="#000000" stroke="#000000" points="504.5,-302 349.5,-302 349.5,-258 504.5,-258 504.5,-302"/>
<text text-anchor="middle" x="427" y="-291.6" font-family="Arial" font-size="8.00" fill="#ffffff">bm::deseriaizer_base::read_gap_block</text>
<text text-anchor="middle" x="427" y="-282.6" font-family="Arial" font-size="8.00" fill="#ffffff">19.76%</text>
<text text-anchor="middle" x="427" y="-273.6" font-family="Arial" font-size="8.00" fill="#ffffff">(0.90%)</text>
<text text-anchor="middle" x="427" y="-264.6" font-family="Arial" font-size="8.00" fill="#ffffff">349676478×</text>
</g>
<!-- 2&#45;&gt;5 -->
<g id="edge6" class="edge">
<title>2&#45;&gt;5</title>
<path fill="none" stroke="#000000" stroke-width="1.58" d="M1112.89,-367.03C925.63,-343.54 648.89,-308.83 511.2,-291.56"/>
<polygon fill="#000000" stroke="#000000" stroke-width="1.58" points="511.27,-289.35 504.75,-290.75 510.72,-293.72 511.27,-289.35"/>
<text text-anchor="middle" x="810" y="-322.6" font-family="Arial" font-size="8.00" fill="#000000">19.76%</text>
<text text-anchor="middle" x="810" y="-313.6" font-family="Arial" font-size="8.00" fill="#000000">349676478×</text>
</g>
<!-- 6 -->
<g id="node8" class="node">
<title>6</title>
<polygon fill="#000000" stroke="#000000" points="818,-302 652,-302 652,-258 818,-258 818,-302"/>
<text text-anchor="middle" x="735" y="-291.6" font-family="Arial" font-size="8.00" fill="#ffffff">bm::combine_count_operation_with_block</text>
<text text-anchor="middle" x="735" y="-282.6" font-family="Arial" font-size="8.00" fill="#ffffff">18.94%</text>
<text text-anchor="middle" x="735" y="-273.6" font-family="Arial" font-size="8.00" fill="#ffffff">(0.81%)</text>
<text text-anchor="middle" x="735" y="-264.6" font-family="Arial" font-size="8.00" fill="#ffffff">233114947×</text>
</g>
<!-- 2&#45;&gt;6 -->
<g id="edge7" class="edge">
<title>2&#45;&gt;6</title>
<path fill="none" stroke="#000000" stroke-width="1.52" d="M1112.78,-357.94C1026.2,-342.39 922.48,-322.95 824.5,-302.3"/>
<polygon fill="#000000" stroke="#000000" stroke-width="1.52" points="824.87,-300.16 818.35,-301.01 823.97,-304.41 824.87,-300.16"/>
<text text-anchor="middle" x="977.5" y="-322.6" font-family="Arial" font-size="8.00" fill="#000000">18.94%</text>
<text text-anchor="middle" x="977.5" y="-313.6" font-family="Arial" font-size="8.00" fill="#000000">233114947×</text>
</g>
<!-- 10 -->
<g id="node9" class="node">
<title>10</title>
<polygon fill="#000000" stroke="#000000" points="1058.5,-302 827.5,-302 827.5,-258 1058.5,-258 1058.5,-302"/>
<text text-anchor="middle" x="943" y="-291.6" font-family="Arial" font-size="8.00" fill="#ffffff">bm::serial_stream_iterator::get_bit_block_COUNT_SUB_AB</text>
<text text-anchor="middle" x="943" y="-282.6" font-family="Arial" font-size="8.00" fill="#ffffff">6.24%</text>
<text text-anchor="middle" x="943" y="-273.6" font-family="Arial" font-size="8.00" fill="#ffffff">(6.24%)</text>
<text text-anchor="middle" x="943" y="-264.6" font-family="Arial" font-size="8.00" fill="#ffffff">6054375×</text>
</g>
<!-- 2&#45;&gt;10 -->
<g id="edge8" class="edge">
<title>2&#45;&gt;10</title>
<path fill="none" stroke="#000000" stroke-width="0.5" d="M1129.84,-337.93C1089.49,-325.64 1048.7,-313.21 1015.58,-303.12"/>
<polygon fill="#000000" stroke="#000000" stroke-width="0.5" points="1015.7,-301.87 1011.99,-302.02 1014.98,-304.21 1015.7,-301.87"/>
<text text-anchor="middle" x="1110.5" y="-322.6" font-family="Arial" font-size="8.00" fill="#000000">6.24%</text>
<text text-anchor="middle" x="1110.5" y="-313.6" font-family="Arial" font-size="8.00" fill="#000000">6054375×</text>
</g>
<!-- 13 -->
<g id="node10" class="node">
<title>13</title>
<polygon fill="#000000" stroke="#000000" points="1240.5,-302 1067.5,-302 1067.5,-258 1240.5,-258 1240.5,-302"/>
<text text-anchor="middle" x="1154" y="-291.6" font-family="Arial" font-size="8.00" fill="#ffffff">bm::bvector::combine_operation_with_block</text>
<text text-anchor="middle" x="1154" y="-282.6" font-family="Arial" font-size="8.00" fill="#ffffff">4.43%</text>
<text text-anchor="middle" x="1154" y="-273.6" font-family="Arial" font-size="8.00" fill="#ffffff">(0.12%)</text>
<text text-anchor="middle" x="1154" y="-264.6" font-family="Arial" font-size="8.00" fill="#ffffff">116542573×</text>
</g>
<!-- 2&#45;&gt;13 -->
<g id="edge9" class="edge">
<title>2&#45;&gt;13</title>
<path fill="none" stroke="#000000" stroke-width="0.35" d="M1231.64,-337.93C1215.34,-325.98 1198.88,-313.91 1185.34,-303.98"/>
<polygon fill="#000000" stroke="#000000" stroke-width="0.35" points="1185.71,-302.95 1182.67,-302.02 1184.46,-304.64 1185.71,-302.95"/>
<text text-anchor="middle" x="1238.5" y="-322.6" font-family="Arial" font-size="8.00" fill="#000000">4.43%</text>
<text text-anchor="middle" x="1238.5" y="-313.6" font-family="Arial" font-size="8.00" fill="#000000">116542573×</text>
</g>
<!-- 15 -->
<g id="node11" class="node">
<title>15</title>
<polygon fill="#000000" stroke="#000000" points="1458.5,-302 1249.5,-302 1249.5,-258 1458.5,-258 1458.5,-302"/>
<text text-anchor="middle" x="1354" y="-291.6" font-family="Arial" font-size="8.00" fill="#ffffff">bm::blocks_manager::optimize_gap_convert_bit_block</text>
<text text-anchor="middle" x="1354" y="-282.6" font-family="Arial" font-size="8.00" fill="#ffffff">3.92%</text>
<text text-anchor="middle" x="1354" y="-273.6" font-family="Arial" font-size="8.00" fill="#ffffff">(3.92%)</text>
<text text-anchor="middle" x="1354" y="-264.6" font-family="Arial" font-size="8.00" fill="#ffffff">6056702×</text>
</g>
<!-- 2&#45;&gt;15 -->
<g id="edge10" class="edge">
<title>2&#45;&gt;15</title>
<path fill="none" stroke="#000000" stroke-width="0.31" d="M1328.12,-337.93C1333.42,-326.28 1338.77,-314.52 1343.21,-304.73"/>
<polygon fill="#000000" stroke="#000000" stroke-width="0.31" points="1344.18,-304.98 1344.44,-302.02 1342.39,-304.17 1344.18,-304.98"/>
<text text-anchor="middle" x="1358.5" y="-322.6" font-family="Arial" font-size="8.00" fill="#000000">3.92%</text>
<text text-anchor="middle" x="1358.5" y="-313.6" font-family="Arial" font-size="8.00" fill="#000000">6056702×</text>
</g>
<!-- 21 -->
<g id="node12" class="node">
<title>21</title>
<polygon fill="#000000" stroke="#000000" points="1570.5,-302 1467.5,-302 1467.5,-258 1570.5,-258 1570.5,-302"/>
<text text-anchor="middle" x="1519" y="-291.6" font-family="Arial" font-size="8.00" fill="#ffffff">bm::bit_block_change64</text>
<text text-anchor="middle" x="1519" y="-282.6" font-family="Arial" font-size="8.00" fill="#ffffff">1.36%</text>
<text text-anchor="middle" x="1519" y="-273.6" font-family="Arial" font-size="8.00" fill="#ffffff">(1.36%)</text>
<text text-anchor="middle" x="1519" y="-264.6" font-family="Arial" font-size="8.00" fill="#ffffff">6057831×</text>
</g>
<!-- 2&#45;&gt;21 -->
<g id="edge11" class="edge">
<title>2&#45;&gt;21</title>
<path fill="none" stroke="#000000" stroke-width="0.11" d="M1407.72,-337.93C1431.86,-325.59 1456.24,-313.11 1476.01,-302.99"/>
<polygon fill="#000000" stroke="#000000" stroke-width="0.11" points="1476.74,-303.25 1477.91,-302.02 1476.23,-302.25 1476.74,-303.25"/>
<text text-anchor="middle" x="1474.5" y="-322.6" font-family="Arial" font-size="8.00" fill="#000000">1.36%</text>
<text text-anchor="middle" x="1474.5" y="-313.6" font-family="Arial" font-size="8.00" fill="#000000">6056717×</text>
</g>
<!-- 24 -->
<g id="node13" class="node">
<title>24</title>
<polygon fill="#000000" stroke="#000000" points="1736,-302 1580,-302 1580,-258 1736,-258 1736,-302"/>
<text text-anchor="middle" x="1658" y="-291.6" font-family="Arial" font-size="8.00" fill="#ffffff">bm::blocks_manager::deoptimize_block</text>
<text text-anchor="middle" x="1658" y="-282.6" font-family="Arial" font-size="8.00" fill="#ffffff">0.74%</text>
<text text-anchor="middle" x="1658" y="-273.6" font-family="Arial" font-size="8.00" fill="#ffffff">(0.47%)</text>
<text text-anchor="middle" x="1658" y="-264.6" font-family="Arial" font-size="8.00" fill="#ffffff">5633041×</text>
</g>
<!-- 2&#45;&gt;24 -->
<g id="edge12" class="edge">
<title>2&#45;&gt;24</title>
<path fill="none" stroke="#000000" stroke-width="0.1" d="M1474.78,-337.93C1515.16,-325.39 1555.97,-312.71 1588.79,-302.51"/>
<polygon fill="#000000" stroke="#000000" stroke-width="0.1" points="1588.99,-303.03 1590.35,-302.02 1588.65,-301.96 1588.99,-303.03"/>
<text text-anchor="middle" x="1571.5" y="-322.6" font-family="Arial" font-size="8.00" fill="#000000">0.74%</text>
<text text-anchor="middle" x="1571.5" y="-313.6" font-family="Arial" font-size="8.00" fill="#000000">5633041×</text>
</g>
<!-- 25 -->
<g id="node14" class="node">
<title>25</title>
<polygon fill="#000000" stroke="#000000" points="1962.5,-302 1745.5,-302 1745.5,-258 1962.5,-258 1962.5,-302"/>
<text text-anchor="middle" x="1854" y="-291.6" font-family="Arial" font-size="8.00" fill="#ffffff">bm::serial_stream_iterator::get_bit_block_COUNT_AND</text>
<text text-anchor="middle" x="1854" y="-282.6" font-family="Arial" font-size="8.00" fill="#ffffff">0.70%</text>
<text text-anchor="middle" x="1854" y="-273.6" font-family="Arial" font-size="8.00" fill="#ffffff">(0.70%)</text>
<text text-anchor="middle" x="1854" y="-264.6" font-family="Arial" font-size="8.00" fill="#ffffff">6054375×</text>
</g>
<!-- 2&#45;&gt;25 -->
<g id="edge13" class="edge">
<title>2&#45;&gt;25</title>
<path fill="none" stroke="#000000" stroke-width="0.1" d="M1495.04,-338.92C1496.7,-338.61 1498.35,-338.3 1500,-338 1540.41,-330.61 1551.31,-334.67 1592,-329 1658.66,-319.72 1674.8,-314.15 1741,-302 1741.92,-301.83 1742.84,-301.66 1743.77,-301.49"/>
<polygon fill="#000000" stroke="#000000" stroke-width="0.1" points="1743.97,-302.02 1745.45,-301.18 1743.77,-300.92 1743.97,-302.02"/>
<text text-anchor="middle" x="1710.5" y="-322.6" font-family="Arial" font-size="8.00" fill="#000000">0.70%</text>
<text text-anchor="middle" x="1710.5" y="-313.6" font-family="Arial" font-size="8.00" fill="#000000">6054375×</text>
</g>
<!-- 26 -->
<g id="node15" class="node">
<title>26</title>
<polygon fill="#000000" stroke="#000000" points="2102,-302 1972,-302 1972,-258 2102,-258 2102,-302"/>
<text text-anchor="middle" x="2037" y="-291.6" font-family="Arial" font-size="8.00" fill="#ffffff">bm::serial_stream_iterator::next</text>
<text text-anchor="middle" x="2037" y="-282.6" font-family="Arial" font-size="8.00" fill="#ffffff">0.69%</text>
<text text-anchor="middle" x="2037" y="-273.6" font-family="Arial" font-size="8.00" fill="#ffffff">(0.69%)</text>
<text text-anchor="middle" x="2037" y="-264.6" font-family="Arial" font-size="8.00" fill="#ffffff">736279393×</text>
</g>
<!-- 2&#45;&gt;26 -->
<g id="edge14" class="edge">
<title>2&#45;&gt;26</title>
<path fill="none" stroke="#000000" stroke-width="0.1" d="M1495.02,-338.78C1496.68,-338.51 1498.34,-338.25 1500,-338 1601.57,-322.49 1628.56,-336.84 1731,-329 1836.26,-320.94 1863.59,-323.25 1967,-302 1968.01,-301.79 1969.03,-301.58 1970.05,-301.35"/>
<polygon fill="#000000" stroke="#000000" stroke-width="0.1" points="1970.45,-301.84 1971.89,-300.95 1970.21,-300.75 1970.45,-301.84"/>
<text text-anchor="middle" x="1940" y="-322.6" font-family="Arial" font-size="8.00" fill="#000000">0.69%</text>
<text text-anchor="middle" x="1940" y="-313.6" font-family="Arial" font-size="8.00" fill="#000000">736279393×</text>
</g>
<!-- 3&#45;&gt;2 -->
<g id="edge15" class="edge">
<title>3&#45;&gt;2</title>
<path fill="none" stroke="#000000" stroke-width="2.58" d="M1407.32,-481.79C1397.08,-472.99 1384.65,-462.31 1372.01,-451.45"/>
<polygon fill="#000000" stroke="#000000" stroke-width="2.58" points="1373.69,-449.2 1365.8,-446.11 1370.04,-453.44 1373.69,-449.2"/>
<text text-anchor="middle" x="1418" y="-466.6" font-family="Arial" font-size="8.00" fill="#000000">32.24%</text>
<text text-anchor="middle" x="1418" y="-457.6" font-family="Arial" font-size="8.00" fill="#000000">122815740×</text>
</g>
<!-- 3&#45;&gt;23 -->
<g id="edge16" class="edge">
<title>3&#45;&gt;23</title>
<path fill="none" stroke="#000000" stroke-width="0.1" d="M1464.19,-482.05C1493.69,-462.84 1537.23,-434.51 1567.23,-414.98"/>
<polygon fill="#000000" stroke="#000000" stroke-width="0.1" points="1567.61,-415.4 1568.65,-414.06 1567,-414.46 1567.61,-415.4"/>
<text text-anchor="middle" x="1524" y="-466.6" font-family="Arial" font-size="8.00" fill="#000000">0.38%</text>
<text text-anchor="middle" x="1524" y="-457.6" font-family="Arial" font-size="8.00" fill="#000000">122815740×</text>
</g>
<!-- 20 -->
<g id="node16" class="node">
<title>20</title>
<polygon fill="#000000" stroke="#000000" points="138,-217.5 0,-217.5 0,-173.5 138,-173.5 138,-217.5"/>
<text text-anchor="middle" x="69" y="-207.1" font-family="Arial" font-size="8.00" fill="#ffffff">bm::blocks_manager::set_all_zero</text>
<text text-anchor="middle" x="69" y="-198.1" font-family="Arial" font-size="8.00" fill="#ffffff">1.44%</text>
<text text-anchor="middle" x="69" y="-189.1" font-family="Arial" font-size="8.00" fill="#ffffff">(1.44%)</text>
<text text-anchor="middle" x="69" y="-180.1" font-family="Arial" font-size="8.00" fill="#ffffff">4200246×</text>
</g>
<!-- 4&#45;&gt;20 -->
<g id="edge17" class="edge">
<title>4&#45;&gt;20</title>
<path fill="none" stroke="#000000" stroke-width="0.12" d="M123.22,-257.88C119.3,-255.07 115.47,-252.09 112,-249 102.01,-240.13 92.43,-228.81 84.86,-218.96"/>
<polygon fill="#000000" stroke="#000000" stroke-width="0.12" points="85.26,-218.5 83.76,-217.51 84.32,-219.23 85.26,-218.5"/>
<text text-anchor="middle" x="130.5" y="-242.6" font-family="Arial" font-size="8.00" fill="#000000">1.44%</text>
<text text-anchor="middle" x="130.5" y="-233.6" font-family="Arial" font-size="8.00" fill="#000000">4200244×</text>
</g>
<!-- 7 -->
<g id="node17" class="node">
<title>7</title>
<polygon fill="#000000" stroke="#000000" points="234.5,-128.5 151.5,-128.5 151.5,-84.5 234.5,-84.5 234.5,-128.5"/>
<text text-anchor="middle" x="193" y="-118.1" font-family="Arial" font-size="8.00" fill="#ffffff">bm::bit_in::gamma</text>
<text text-anchor="middle" x="193" y="-109.1" font-family="Arial" font-size="8.00" fill="#ffffff">12.48%</text>
<text text-anchor="middle" x="193" y="-100.1" font-family="Arial" font-size="8.00" fill="#ffffff">(12.48%)</text>
<text text-anchor="middle" x="193" y="-91.1" font-family="Arial" font-size="8.00" fill="#ffffff">4376971059×</text>
</g>
<!-- 5&#45;&gt;7 -->
<g id="edge18" class="edge">
<title>5&#45;&gt;7</title>
<path fill="none" stroke="#000000" stroke-width="0.56" d="M349.29,-267.46C274.83,-255.61 172.02,-236.85 160,-222 138.95,-195.99 157.67,-157.14 174.31,-132.06"/>
<polygon fill="#000000" stroke="#000000" stroke-width="0.56" points="175.54,-132.56 176.54,-128.77 173.39,-131.11 175.54,-132.56"/>
<text text-anchor="middle" x="185" y="-198.1" font-family="Arial" font-size="8.00" fill="#000000">6.96%</text>
<text text-anchor="middle" x="185" y="-189.1" font-family="Arial" font-size="8.00" fill="#000000">2441953203×</text>
</g>
<!-- 9 -->
<g id="node18" class="node">
<title>9</title>
<polygon fill="#000000" stroke="#000000" points="353,-217.5 215,-217.5 215,-173.5 353,-173.5 353,-217.5"/>
<text text-anchor="middle" x="284" y="-207.1" font-family="Arial" font-size="8.00" fill="#ffffff">bm::deseriaizer_base::read_id_list</text>
<text text-anchor="middle" x="284" y="-198.1" font-family="Arial" font-size="8.00" fill="#ffffff">7.93%</text>
<text text-anchor="middle" x="284" y="-189.1" font-family="Arial" font-size="8.00" fill="#ffffff">(2.42%)</text>
<text text-anchor="middle" x="284" y="-180.1" font-family="Arial" font-size="8.00" fill="#ffffff">193749848×</text>
</g>
<!-- 5&#45;&gt;9 -->
<g id="edge19" class="edge">
<title>5&#45;&gt;9</title>
<path fill="none" stroke="#000000" stroke-width="0.63" d="M390.55,-257.97C370.36,-246.33 345.23,-231.83 324.45,-219.84"/>
<polygon fill="#000000" stroke="#000000" stroke-width="0.63" points="325.05,-218.57 320.89,-217.78 323.65,-220.99 325.05,-218.57"/>
<text text-anchor="middle" x="396" y="-242.6" font-family="Arial" font-size="8.00" fill="#000000">7.93%</text>
<text text-anchor="middle" x="396" y="-233.6" font-family="Arial" font-size="8.00" fill="#000000">193749848×</text>
</g>
<!-- 16 -->
<g id="node19" class="node">
<title>16</title>
<polygon fill="#000000" stroke="#000000" points="491.5,-217.5 362.5,-217.5 362.5,-173.5 491.5,-173.5 491.5,-217.5"/>
<text text-anchor="middle" x="427" y="-207.1" font-family="Arial" font-size="8.00" fill="#ffffff">unsigned int bm::gap_set_array</text>
<text text-anchor="middle" x="427" y="-198.1" font-family="Arial" font-size="8.00" fill="#ffffff">3.35%</text>
<text text-anchor="middle" x="427" y="-189.1" font-family="Arial" font-size="8.00" fill="#ffffff">(3.35%)</text>
<text text-anchor="middle" x="427" y="-180.1" font-family="Arial" font-size="8.00" fill="#ffffff">193749848×</text>
</g>
<!-- 5&#45;&gt;16 -->
<g id="edge20" class="edge">
<title>5&#45;&gt;16</title>
<path fill="none" stroke="#000000" stroke-width="0.27" d="M427,-257.75C427,-246.3 427,-232.14 427,-220.31"/>
<polygon fill="#000000" stroke="#000000" stroke-width="0.27" points="427.91,-220.27 427,-217.67 426.09,-220.27 427.91,-220.27"/>
<text text-anchor="middle" x="450" y="-242.6" font-family="Arial" font-size="8.00" fill="#000000">3.35%</text>
<text text-anchor="middle" x="450" y="-233.6" font-family="Arial" font-size="8.00" fill="#000000">193749848×</text>
</g>
<!-- 27 -->
<g id="node20" class="node">
<title>27</title>
<polygon fill="#000000" stroke="#000000" points="633,-217.5 501,-217.5 501,-173.5 633,-173.5 633,-217.5"/>
<text text-anchor="middle" x="567" y="-207.1" font-family="Arial" font-size="8.00" fill="#ffffff">unsigned int bm::gap_add_value</text>
<text text-anchor="middle" x="567" y="-198.1" font-family="Arial" font-size="8.00" fill="#ffffff">0.61%</text>
<text text-anchor="middle" x="567" y="-189.1" font-family="Arial" font-size="8.00" fill="#ffffff">(0.61%)</text>
<text text-anchor="middle" x="567" y="-180.1" font-family="Arial" font-size="8.00" fill="#ffffff">592073841×</text>
</g>
<!-- 5&#45;&gt;27 -->
<g id="edge21" class="edge">
<title>5&#45;&gt;27</title>
<path fill="none" stroke="#000000" stroke-width="0.1" d="M462.69,-257.97C483.1,-245.94 508.68,-230.86 529.4,-218.65"/>
<polygon fill="#000000" stroke="#000000" stroke-width="0.1" points="529.79,-219.07 530.89,-217.78 529.23,-218.11 529.79,-219.07"/>
<text text-anchor="middle" x="529" y="-242.6" font-family="Arial" font-size="8.00" fill="#000000">0.61%</text>
<text text-anchor="middle" x="529" y="-233.6" font-family="Arial" font-size="8.00" fill="#000000">592073841×</text>
</g>
<!-- 8 -->
<g id="node21" class="node">
<title>8</title>
<polygon fill="#000000" stroke="#000000" points="776.5,-133 645.5,-133 645.5,-80 776.5,-80 776.5,-133"/>
<text text-anchor="middle" x="711" y="-122.6" font-family="Arial" font-size="8.00" fill="#ffffff">unsigned int</text>
<text text-anchor="middle" x="711" y="-113.6" font-family="Arial" font-size="8.00" fill="#ffffff">bm::bit_block_calc_count_range</text>
<text text-anchor="middle" x="711" y="-104.6" font-family="Arial" font-size="8.00" fill="#ffffff">9.11%</text>
<text text-anchor="middle" x="711" y="-95.6" font-family="Arial" font-size="8.00" fill="#ffffff">(9.11%)</text>
<text text-anchor="middle" x="711" y="-86.6" font-family="Arial" font-size="8.00" fill="#ffffff">644224577×</text>
</g>
<!-- 6&#45;&gt;8 -->
<g id="edge22" class="edge">
<title>6&#45;&gt;8</title>
<path fill="none" stroke="#000000" stroke-width="0.37" d="M690.91,-257.8C677.17,-248.81 663.63,-236.91 656,-222 645.27,-201.03 647.6,-191.01 656,-169 660.71,-156.66 669.16,-145.24 678.05,-135.67"/>
<polygon fill="#000000" stroke="#000000" stroke-width="0.37" points="679.01,-136.17 680.31,-133.27 677.49,-134.73 679.01,-136.17"/>
<text text-anchor="middle" x="679" y="-198.1" font-family="Arial" font-size="8.00" fill="#000000">4.61%</text>
<text text-anchor="middle" x="679" y="-189.1" font-family="Arial" font-size="8.00" fill="#000000">326247965×</text>
</g>
<!-- 11 -->
<g id="node22" class="node">
<title>11</title>
<polygon fill="#000000" stroke="#000000" points="807.5,-222 706.5,-222 706.5,-169 807.5,-169 807.5,-222"/>
<text text-anchor="middle" x="757" y="-211.6" font-family="Arial" font-size="8.00" fill="#ffffff">unsigned int</text>
<text text-anchor="middle" x="757" y="-202.6" font-family="Arial" font-size="8.00" fill="#ffffff">bm::gap_buff_count_op</text>
<text text-anchor="middle" x="757" y="-193.6" font-family="Arial" font-size="8.00" fill="#ffffff">5.58%</text>
<text text-anchor="middle" x="757" y="-184.6" font-family="Arial" font-size="8.00" fill="#ffffff">(5.58%)</text>
<text text-anchor="middle" x="757" y="-175.6" font-family="Arial" font-size="8.00" fill="#ffffff">108115060×</text>
</g>
<!-- 6&#45;&gt;11 -->
<g id="edge23" class="edge">
<title>6&#45;&gt;11</title>
<path fill="none" stroke="#000000" stroke-width="0.45" d="M740.67,-257.75C743.3,-247.89 746.46,-236.01 749.31,-225.35"/>
<polygon fill="#000000" stroke="#000000" stroke-width="0.45" points="750.44,-225.57 750.18,-222.08 748.21,-224.98 750.44,-225.57"/>
<text text-anchor="middle" x="770.5" y="-242.6" font-family="Arial" font-size="8.00" fill="#000000">5.58%</text>
<text text-anchor="middle" x="770.5" y="-233.6" font-family="Arial" font-size="8.00" fill="#000000">108115060×</text>
</g>
<!-- 12 -->
<g id="node23" class="node">
<title>12</title>
<polygon fill="#000000" stroke="#000000" points="927.5,-222 816.5,-222 816.5,-169 927.5,-169 927.5,-222"/>
<text text-anchor="middle" x="872" y="-211.6" font-family="Arial" font-size="8.00" fill="#ffffff">unsigned int</text>
<text text-anchor="middle" x="872" y="-202.6" font-family="Arial" font-size="8.00" fill="#ffffff">bm::gap_bitset_and_count</text>
<text text-anchor="middle" x="872" y="-193.6" font-family="Arial" font-size="8.00" fill="#ffffff">4.58%</text>
<text text-anchor="middle" x="872" y="-184.6" font-family="Arial" font-size="8.00" fill="#ffffff">(0.09%)</text>
<text text-anchor="middle" x="872" y="-175.6" font-family="Arial" font-size="8.00" fill="#ffffff">8423455×</text>
</g>
<!-- 6&#45;&gt;12 -->
<g id="edge24" class="edge">
<title>6&#45;&gt;12</title>
<path fill="none" stroke="#000000" stroke-width="0.37" d="M778.95,-257.88C784.42,-255.01 789.88,-252.01 795,-249 807.97,-241.38 821.68,-232.37 833.87,-223.99"/>
<polygon fill="#000000" stroke="#000000" stroke-width="0.37" points="834.74,-224.67 836.61,-222.1 833.55,-222.94 834.74,-224.67"/>
<text text-anchor="middle" x="842.5" y="-242.6" font-family="Arial" font-size="8.00" fill="#000000">4.58%</text>
<text text-anchor="middle" x="842.5" y="-233.6" font-family="Arial" font-size="8.00" fill="#000000">8423455×</text>
</g>
<!-- 17 -->
<g id="node24" class="node">
<title>17</title>
<polygon fill="#000000" stroke="#000000" points="1037.5,-222 936.5,-222 936.5,-169 1037.5,-169 1037.5,-222"/>
<text text-anchor="middle" x="987" y="-211.6" font-family="Arial" font-size="8.00" fill="#ffffff">unsigned int</text>
<text text-anchor="middle" x="987" y="-202.6" font-family="Arial" font-size="8.00" fill="#ffffff">bm::gap_buff_count_op</text>
<text text-anchor="middle" x="987" y="-193.6" font-family="Arial" font-size="8.00" fill="#ffffff">3.35%</text>
<text text-anchor="middle" x="987" y="-184.6" font-family="Arial" font-size="8.00" fill="#ffffff">(3.35%)</text>
<text text-anchor="middle" x="987" y="-175.6" font-family="Arial" font-size="8.00" fill="#ffffff">108115060×</text>
</g>
<!-- 6&#45;&gt;17 -->
<g id="edge25" class="edge">
<title>6&#45;&gt;17</title>
<path fill="none" stroke="#000000" stroke-width="0.27" d="M818.37,-259.08C819.93,-258.71 821.47,-258.35 823,-258 840.75,-253.89 845.58,-254.34 863,-249 894.49,-239.36 901.71,-234.93 932,-222 932.64,-221.73 933.27,-221.45 933.92,-221.18"/>
<polygon fill="#000000" stroke="#000000" stroke-width="0.27" points="934.38,-221.97 936.4,-220.1 933.66,-220.3 934.38,-221.97"/>
<text text-anchor="middle" x="933.5" y="-242.6" font-family="Arial" font-size="8.00" fill="#000000">3.35%</text>
<text text-anchor="middle" x="933.5" y="-233.6" font-family="Arial" font-size="8.00" fill="#000000">108115060×</text>
</g>
<!-- 14 -->
<g id="node25" class="node">
<title>14</title>
<polygon fill="#000000" stroke="#000000" points="1240.5,-217.5 1067.5,-217.5 1067.5,-173.5 1240.5,-173.5 1240.5,-217.5"/>
<text text-anchor="middle" x="1154" y="-207.1" font-family="Arial" font-size="8.00" fill="#ffffff">bm::bvector::combine_operation_with_block</text>
<text text-anchor="middle" x="1154" y="-198.1" font-family="Arial" font-size="8.00" fill="#ffffff">4.30%</text>
<text text-anchor="middle" x="1154" y="-189.1" font-family="Arial" font-size="8.00" fill="#ffffff">(1.02%)</text>
<text text-anchor="middle" x="1154" y="-180.1" font-family="Arial" font-size="8.00" fill="#ffffff">116542576×</text>
</g>
<!-- 13&#45;&gt;14 -->
<g id="edge28" class="edge">
<title>13&#45;&gt;14</title>
<path fill="none" stroke="#000000" stroke-width="0.34" d="M1154,-257.75C1154,-246.4 1154,-232.38 1154,-220.61"/>
<polygon fill="#000000" stroke="#000000" stroke-width="0.34" points="1155.02,-220.57 1154,-217.67 1152.99,-220.57 1155.02,-220.57"/>
<text text-anchor="middle" x="1176.5" y="-242.6" font-family="Arial" font-size="8.00" fill="#000000">4.30%</text>
<text text-anchor="middle" x="1176.5" y="-233.6" font-family="Arial" font-size="8.00" fill="#000000">116542573×</text>
</g>
<!-- 9&#45;&gt;7 -->
<g id="edge26" class="edge">
<title>9&#45;&gt;7</title>
<path fill="none" stroke="#000000" stroke-width="0.44" d="M261.97,-173.44C248.66,-160.71 231.65,-144.45 217.86,-131.26"/>
<polygon fill="#000000" stroke="#000000" stroke-width="0.44" points="218.32,-130.11 215.14,-128.67 216.73,-131.78 218.32,-130.11"/>
<text text-anchor="middle" x="272" y="-153.6" font-family="Arial" font-size="8.00" fill="#000000">5.52%</text>
<text text-anchor="middle" x="272" y="-144.6" font-family="Arial" font-size="8.00" fill="#000000">1935017856×</text>
</g>
<!-- 12&#45;&gt;8 -->
<g id="edge27" class="edge">
<title>12&#45;&gt;8</title>
<path fill="none" stroke="#000000" stroke-width="0.36" d="M824.57,-168.87C804.67,-158.12 781.52,-145.61 761.33,-134.7"/>
<polygon fill="#000000" stroke="#000000" stroke-width="0.36" points="761.51,-133.6 758.37,-133.1 760.51,-135.45 761.51,-133.6"/>
<text text-anchor="middle" x="829" y="-153.6" font-family="Arial" font-size="8.00" fill="#000000">4.50%</text>
<text text-anchor="middle" x="829" y="-144.6" font-family="Arial" font-size="8.00" fill="#000000">317976612×</text>
</g>
<!-- 18 -->
<g id="node26" class="node">
<title>18</title>
<polygon fill="#000000" stroke="#000000" points="1204.5,-128.5 1103.5,-128.5 1103.5,-84.5 1204.5,-84.5 1204.5,-128.5"/>
<text text-anchor="middle" x="1154" y="-118.1" font-family="Arial" font-size="8.00" fill="#ffffff">bm::gap_operation_sub</text>
<text text-anchor="middle" x="1154" y="-109.1" font-family="Arial" font-size="8.00" fill="#ffffff">2.89%</text>
<text text-anchor="middle" x="1154" y="-100.1" font-family="Arial" font-size="8.00" fill="#ffffff">(0.05%)</text>
<text text-anchor="middle" x="1154" y="-91.1" font-family="Arial" font-size="8.00" fill="#ffffff">105928065×</text>
</g>
<!-- 14&#45;&gt;18 -->
<g id="edge29" class="edge">
<title>14&#45;&gt;18</title>
<path fill="none" stroke="#000000" stroke-width="0.23" d="M1154,-173.44C1154,-160.71 1154,-144.45 1154,-131.26"/>
<polygon fill="#000000" stroke="#000000" stroke-width="0.23" points="1154.84,-131.07 1154,-128.67 1153.16,-131.07 1154.84,-131.07"/>
<text text-anchor="middle" x="1177" y="-153.6" font-family="Arial" font-size="8.00" fill="#000000">2.89%</text>
<text text-anchor="middle" x="1177" y="-144.6" font-family="Arial" font-size="8.00" fill="#000000">105928065×</text>
</g>
<!-- 19 -->
<g id="node27" class="node">
<title>19</title>
<polygon fill="#000000" stroke="#000000" points="1201,-44 1107,-44 1107,0 1201,0 1201,-44"/>
<text text-anchor="middle" x="1154" y="-33.6" font-family="Arial" font-size="8.00" fill="#ffffff">void bm::gap_buff_op</text>
<text text-anchor="middle" x="1154" y="-24.6" font-family="Arial" font-size="8.00" fill="#ffffff">2.89%</text>
<text text-anchor="middle" x="1154" y="-15.6" font-family="Arial" font-size="8.00" fill="#ffffff">(2.89%)</text>
<text text-anchor="middle" x="1154" y="-6.6" font-family="Arial" font-size="8.00" fill="#ffffff">107697800×</text>
</g>
<!-- 18&#45;&gt;19 -->
<g id="edge30" class="edge">
<title>18&#45;&gt;19</title>
<path fill="none" stroke="#000000" stroke-width="0.23" d="M1154,-84.25C1154,-72.8 1154,-58.64 1154,-46.81"/>
<polygon fill="#000000" stroke="#000000" stroke-width="0.23" points="1154.84,-46.57 1154,-44.17 1153.16,-46.57 1154.84,-46.57"/>
<text text-anchor="middle" x="1177" y="-64.6" font-family="Arial" font-size="8.00" fill="#000000">2.84%</text>
<text text-anchor="middle" x="1177" y="-55.6" font-family="Arial" font-size="8.00" fill="#000000">105928065×</text>
</g>
</g>
</svg>
